PathFileType	4	(X/Y/Z)	/Users/itak/Documents/Research/Walk-IL/dataset/trc/00447_00167.trc
DataRate	CameraRate	NumFrames	NumMarkers	Units	OrigDataRate	OrigDataStartFrame	OrigNumFrames
100.000000	100.000000	4	55	mm	100.000000	0	294
Frame#	Time	RPSI			LPSI			L3			STRN			T10			C7			CLAV			RBAK			LBAK			LSHO			LUPA			LAEL			LAOL			LWTS			LWPS			LFRA			LIFD			LHPS			LHTS			RSHO			RUPA			RAEL			RAOL			RWTS			RWPS			RFRA			RIFD			RHTS			RHPS			RBHD			LFHD			RFHD			LBHD			LHIP			RHIP			RASI			LASI			LKNE			LTHI			LANK			LTIP			LTOE			LMT1			LMT5			LHEE			RKNE			RTHI			RANK			RTIP			RTOE			RMT1			RMT5			RHEE			*53			*54			
		X1	Y1	Z1	X2	Y2	Z2	X3	Y3	Z3	X4	Y4	Z4	X5	Y5	Z5	X6	Y6	Z6	X7	Y7	Z7	X8	Y8	Z8	X9	Y9	Z9	X10	Y10	Z10	X11	Y11	Z11	X12	Y12	Z12	X13	Y13	Z13	X14	Y14	Z14	X15	Y15	Z15	X16	Y16	Z16	X17	Y17	Z17	X18	Y18	Z18	X19	Y19	Z19	X20	Y20	Z20	X21	Y21	Z21	X22	Y22	Z22	X23	Y23	Z23	X24	Y24	Z24	X25	Y25	Z25	X26	Y26	Z26	X27	Y27	Z27	X28	Y28	Z28	X29	Y29	Z29	X30	Y30	Z30	X31	Y31	Z31	X32	Y32	Z32	X33	Y33	Z33	X34	Y34	Z34	X35	Y35	Z35	X36	Y36	Z36	X37	Y37	Z37	X38	Y38	Z38	X39	Y39	Z39	X40	Y40	Z40	X41	Y41	Z41	X42	Y42	Z42	X43	Y43	Z43	X44	Y44	Z44	X45	Y45	Z45	X46	Y46	Z46	X47	Y47	Z47	X48	Y48	Z48	X49	Y49	Z49	X50	Y50	Z50	X51	Y51	Z51	X52	Y52	Z52	X53	Y53	Z53	X54	Y54	Z54	X55	Y55	Z55	

1	0	-1680.443969726562	965.4220581054688	-616.4181518554688	-1613.578125	967.9134521484375	-740.7367553710938	-1642.171875	1062.000244140625	-657.1497192382812	-1389.22021484375	1260.541748046875	-548.1707153320312	-1656.690551757812	1187.088012695312	-664.6204223632812	-1599.642211914062	1455.0498046875	-622.17529296875	-1421.500854492188	1374.578979492188	-566.4563598632812	-1695.366455078125	1337.334838867188	-560.44189453125	-1592.839965820312	1406.80810546875	-725.7017822265625	-1467.995361328125	1432.160400390625	-763.7338256835938	-1438.08935546875	1314.56884765625	-859.3859252929688	-1400.8359375	1099.830810546875	-883.631591796875	-1497.83251953125	1081.727416992188	-853.3262329101562	-1330.238525390625	911.44287109375	-810.7843017578125	-1354.199340820312	886.6644287109375	-882.7313232421875	-1373.213623046875	1014.240295410156	-885.7534790039062	-1294.477783203125	748.8067626953125	-805.2852783203125	-1329.858276367188	809.3949584960938	-876.5733032226562	-1294.175170898438	829.8338623046875	-815.6747436523438	-1596.9775390625	1425.41455078125	-445.7551879882812	-1641.374267578125	1362.326538085938	-383.16162109375	-1652.050415039062	1074.071533203125	-332.8961791992188	-1686.394897460938	1056.138427734375	-388.5976867675781	-1533.164916992188	881.0923461914062	-324.2334899902344	-1618.080200195312	862.21630859375	-310.90185546875	-1649.443481445312	1016.9384765625	-322.5796508789062	-1533.1572265625	721.9486694335938	-297.9537353515625	-1525.211181640625	782.6896362304688	-296.115966796875	-1602.110717773438	784.3697509765625	-291.95068359375	-1547.676025390625	1650.443969726562	-506.8056335449219	-1361.632202148438	1660.3291015625	-599.7442626953125	-1413.07470703125	1657.6689453125	-478.6550598144531	-1494.259033203125	1659.608642578125	-676.1499633789062	-1438.524536132812	868.4002075195312	-781.9369506835938	-1643.764282226562	864.217041015625	-441.4449157714844	-1520.90771484375	905.0800170898438	-444.9378051757812	-1386.610717773438	905.9732055664062	-665.7955322265625	-1423.591796875	444.568115234375	-744.9169921875	-1397.16064453125	598.6920166015625	-752.1455078125	-1524.95263671875	35.20471954345703	-803.900634765625	-1443.368774414062	291.6279602050781	-772.6148681640625	-1359.464111328125	45.43871307373047	-633.8392333984375	-1437.675048828125	50.64340209960938	-644.1758422851562	-1384.877075195312	48.57054901123047	-744.888427734375	-1595.526245117188	34.47893524169922	-781.5626220703125	-1600.076049804688	472.4453735351562	-439.8132019042969	-1610.13037109375	732.14990234375	-406.0546569824219	-1665.449584960938	44.74872207641602	-457.3804321289062	-1616.30615234375	327.6434326171875	-427.7798767089844	-1451.326904296875	49.85533905029297	-408.1687927246094	-1492.243041992188	54.17390441894531	-467.8358154296875	-1553.818237304688	49.52900314331055	-377.958251953125	-1704.265625	33.37929153442383	-528.04345703125	nan	nan	nan	nan	nan	nan	
2	0.01	-1680.23974609375	965.4224243164062	-616.4827270507812	-1613.3603515625	967.8829345703125	-740.7343139648438	-1642.04296875	1061.98681640625	-657.2142944335938	-1389.086669921875	1260.542724609375	-548.2234497070312	-1656.563232421875	1187.038330078125	-664.6848754882812	-1599.4814453125	1455.0068359375	-622.27197265625	-1421.362548828125	1374.572387695312	-566.51416015625	-1695.1669921875	1337.2509765625	-560.5393676757812	-1592.753173828125	1406.784301757812	-725.7433471679688	-1467.878540039062	1432.154174804688	-763.7781982421875	-1437.891845703125	1314.529174804688	-859.42578125	-1400.61328125	1099.81005859375	-883.66259765625	-1497.621459960938	1081.6669921875	-853.2824096679688	-1330.497924804688	910.6355590820312	-811.8863525390625	-1354.128662109375	886.662841796875	-882.888427734375	-1373.094970703125	1014.191833496094	-885.7785034179688	-1294.781372070312	748.6412353515625	-805.91845703125	-1329.812622070312	809.3823852539062	-876.9134521484375	-1294.029907226562	829.6885986328125	-816.0933837890625	-1596.8671875	1425.377685546875	-445.8431396484375	-1641.2529296875	1362.267211914062	-383.2266845703125	-1652.036376953125	1074.057861328125	-332.9266052246094	-1686.366821289062	1056.15087890625	-388.6272888183594	-1533.245727539062	881.015380859375	-324.3609619140625	-1618.134399414062	862.158203125	-310.8756103515625	-1649.437377929688	1016.915710449219	-322.6064147949219	-1533.17626953125	721.9296264648438	-298.0254516601562	-1525.240356445312	782.6351318359375	-296.1800231933594	-1602.133056640625	784.331298828125	-291.8614501953125	-1547.630249023438	1650.427124023438	-506.8846435546875	-1361.555541992188	1660.369262695312	-599.76953125	-1413.07373046875	1657.69384765625	-478.6690979003906	-1494.151733398438	1659.619262695312	-676.2412109375	-1438.319946289062	868.3870239257812	-781.9468383789062	-1643.657836914062	864.198486328125	-441.4866638183594	-1520.7265625	905.0884399414062	-444.9611511230469	-1386.3720703125	906.0059814453125	-665.8009033203125	-1423.514282226562	444.5557250976562	-744.8535766601562	-1397.066040039062	598.7044067382812	-752.1377563476562	-1524.960693359375	35.19979476928711	-803.9080200195312	-1443.34033203125	291.6261901855469	-772.5300903320312	-1359.41943359375	45.45983505249023	-633.865234375	-1437.648559570312	50.74980926513672	-644.179931640625	-1384.905639648438	48.59219741821289	-744.8961791992188	-1595.530517578125	34.44960784912109	-781.561767578125	-1600.116455078125	472.4512329101562	-439.89208984375	-1609.982055664062	732.0698852539062	-406.0595092773438	-1665.452392578125	44.74542236328125	-457.3820190429688	-1616.304809570312	327.6282653808594	-427.8435974121094	-1451.326782226562	49.85762786865234	-408.1651306152344	-1492.241821289062	54.17163848876953	-467.8396606445312	-1553.816040039062	49.52914428710938	-377.9640808105469	-1704.253662109375	33.35380554199219	-528.0549926757812	nan	nan	nan	nan	nan	nan	
3	0.02	-1679.990112304688	965.4165649414062	-616.5658569335938	-1613.088623046875	967.8560791015625	-740.7332153320312	-1641.869384765625	1061.959106445312	-657.2941284179688	-1388.918334960938	1260.531372070312	-548.2857055664062	-1656.398315429688	1186.979370117188	-664.7677001953125	-1599.300537109375	1454.959716796875	-622.3829956054688	-1421.179443359375	1374.557861328125	-566.5884399414062	-1694.920776367188	1337.1513671875	-560.650390625	-1592.603881835938	1406.739379882812	-725.7966918945312	-1467.714721679688	1432.143310546875	-763.8342895507812	-1437.641723632812	1314.471435546875	-859.4732055664062	-1400.351928710938	1099.768432617188	-883.713623046875	-1497.331787109375	1081.574340820312	-853.2341918945312	-1330.65966796875	909.8463134765625	-812.96728515625	-1354.032348632812	886.6687622070312	-883.0983276367188	-1372.93408203125	1014.123901367188	-885.8302612304688	-1295.032836914062	748.4151611328125	-806.6843872070312	-1329.760375976562	809.3773193359375	-877.3564453125	-1293.911499023438	829.4893188476562	-816.6115112304688	-1596.728271484375	1425.330688476562	-445.9514465332031	-1641.096313476562	1362.190673828125	-383.3088684082031	-1652.015991210938	1074.036987304688	-332.9669494628906	-1686.322143554688	1056.167724609375	-388.66943359375	-1533.358154296875	880.901611328125	-324.5047302246094	-1618.2177734375	862.0772094726562	-310.8530883789062	-1649.427612304688	1016.880981445312	-322.6500854492188	-1533.251342773438	721.8792114257812	-298.1190490722656	-1525.309814453125	782.543701171875	-296.268798828125	-1602.197875976562	784.2738037109375	-291.7796936035156	-1547.568481445312	1650.408813476562	-506.9807739257812	-1361.462280273438	1660.4150390625	-599.8029174804688	-1413.063110351562	1657.7275390625	-478.688232421875	-1494.028198242188	1659.630615234375	-676.3475952148438	-1438.070922851562	868.3665161132812	-781.9581298828125	-1643.521484375	864.1819458007812	-441.53662109375	-1520.498657226562	905.0968627929688	-444.9820556640625	-1386.072509765625	906.043212890625	-665.808349609375	-1423.382934570312	444.532958984375	-744.769775390625	-1396.930419921875	598.7021484375	-752.1187133789062	-1524.968017578125	35.19204330444336	-803.9210815429688	-1443.282104492188	291.6141967773438	-772.40380859375	-1359.355224609375	45.49872589111328	-633.9085693359375	-1437.6162109375	50.89661026000977	-644.1871948242188	-1384.951171875	48.62799835205078	-744.9080810546875	-1595.545654296875	34.41437149047852	-781.565673828125	-1600.166625976562	472.4543762207031	-439.9930114746094	-1609.82958984375	732.000244140625	-406.0859069824219	-1665.450439453125	44.73201751708984	-457.3812255859375	-1616.300537109375	327.6092834472656	-427.9173889160156	-1451.330200195312	49.86123657226562	-408.1596374511719	-1492.239624023438	54.17048645019531	-467.8450012207031	-1553.812133789062	49.53009796142578	-377.9763793945312	-1704.248657226562	33.32135391235352	-528.066650390625	nan	nan	nan	nan	nan	nan	
4	0.03	-1679.7119140625	965.405029296875	-616.66552734375	-1612.782348632812	967.8438110351562	-740.73974609375	-1641.650268554688	1061.913208007812	-657.3837890625	-1388.720947265625	1260.501831054688	-548.3523559570312	-1656.200073242188	1186.913452148438	-664.8653564453125	-1599.112426757812	1454.912353515625	-622.501708984375	-1420.955444335938	1374.532470703125	-566.67578125	-1694.64208984375	1337.042602539062	-560.7653198242188	-1592.378173828125	1406.66796875	-725.8580932617188	-1467.499755859375	1432.125610351562	-763.9000244140625	-1437.349853515625	1314.395385742188	-859.5252075195312	-1400.067626953125	1099.70166015625	-883.7871704101562	-1496.967407226562	1081.446166992188	-853.1880493164062	-1330.685791015625	909.1514892578125	-813.9198608398438	-1353.91162109375	886.6862182617188	-883.3562622070312	-1372.731689453125	1014.037231445312	-885.916259765625	-1295.14990234375	748.1322631835938	-807.5267944335938	-1329.70361328125	809.3868408203125	-877.8857421875	-1293.8291015625	829.2410888671875	-817.1937866210938	-1596.566162109375	1425.27490234375	-446.0750122070312	-1640.911743164062	1362.099731445312	-383.4054870605469	-1651.987060546875	1074.009155273438	-333.0158081054688	-1686.258422851562	1056.188720703125	-388.7238464355469	-1533.501953125	880.7472534179688	-324.6543273925781	-1618.335205078125	861.9739379882812	-310.8392944335938	-1649.410888671875	1016.83154296875	-322.7132263183594	-1533.403076171875	721.787353515625	-298.2345275878906	-1525.432373046875	782.407958984375	-296.3788146972656	-1602.3173828125	784.1936645507812	-291.720703125	-1547.491333007812	1650.3896484375	-507.0880737304688	-1361.35546875	1660.4619140625	-599.84375	-1413.036376953125	1657.769409179688	-478.7137145996094	-1493.896362304688	1659.640258789062	-676.4609375	-1437.78662109375	868.33349609375	-781.9671020507812	-1643.358154296875	864.1708374023438	-441.5920104980469	-1520.2314453125	905.1044921875	-444.9971618652344	-1385.729125976562	906.0794677734375	-665.8173217773438	-1423.187255859375	444.4956970214844	-744.65625	-1396.745971679688	598.6758422851562	-752.0831909179688	-1524.975463867188	35.1818733215332	-803.939697265625	-1443.18359375	291.5848083496094	-772.23095703125	-1359.271118164062	45.55997085571289	-633.9729614257812	-1437.579956054688	51.08147811889648	-644.1964721679688	-1385.017211914062	48.68182373046875	-744.9244384765625	-1595.574584960938	34.37391662597656	-781.5758666992188	-1600.22119140625	472.4540100097656	-440.1105346679688	-1609.682739257812	731.947021484375	-406.1340942382812	-1665.439819335938	44.7032585144043	-457.3760681152344	-1616.291259765625	327.5861206054688	-427.9951171875	-1451.338989257812	49.86681747436523	-408.1524353027344	-1492.2373046875	54.17187118530273	-467.8520812988281	-1553.806396484375	49.53256225585938	-377.9963073730469	-1704.256103515625	33.2839469909668	-528.0758056640625	nan	nan	nan	nan	nan	nan	
